<svg width="31" height="30" viewBox="0 0 31 30" fill="none" xmlns="http://www.w3.org/2000/svg">
<path d="M16.6129 13.5V7.5H13.5924V13.5H7.55132V16.5H13.5924V22.5H16.6129V16.5H22.654V13.5H16.6129ZM15.1026 30C11.0972 30 7.25575 28.4196 4.42346 25.6066C1.59117 22.7936 0 18.9782 0 15C0 11.0218 1.59117 7.20644 4.42346 4.3934C7.25575 1.58035 11.0972 0 15.1026 0C19.1081 0 22.9495 1.58035 25.7818 4.3934C28.6141 7.20644 30.2053 11.0218 30.2053 15C30.2053 18.9782 28.6141 22.7936 25.7818 25.6066C22.9495 28.4196 19.1081 30 15.1026 30Z" fill="#FFA500"/>
</svg>
