<svg width="30" height="30" viewBox="0 0 30 30" fill="none" xmlns="http://www.w3.org/2000/svg">
<rect x="1.5" y="1.5" width="27" height="27" stroke="white" stroke-width="3"/>
<rect x="1.5" y="1.5" width="27" height="27" stroke="white" stroke-width="3"/>
<rect x="1.5" y="1.5" width="27" height="27" stroke="white" stroke-width="3"/>
<path opacity="0.5" fill-rule="evenodd" clip-rule="evenodd" d="M2.8125 7.5C2.8125 7.25136 2.91127 7.0129 3.08709 6.83709C3.2629 6.66127 3.50136 6.5625 3.75 6.5625H25C25.2486 6.5625 25.4871 6.66127 25.6629 6.83709C25.8387 7.0129 25.9375 7.25136 25.9375 7.5C25.9375 7.74864 25.8387 7.9871 25.6629 8.16291C25.4871 8.33873 25.2486 8.4375 25 8.4375H3.75C3.50136 8.4375 3.2629 8.33873 3.08709 8.16291C2.91127 7.9871 2.8125 7.74864 2.8125 7.5ZM2.8125 13.75C2.8125 13.5014 2.91127 13.2629 3.08709 13.0871C3.2629 12.9113 3.50136 12.8125 3.75 12.8125H11.25C11.4986 12.8125 11.7371 12.9113 11.9129 13.0871C12.0887 13.2629 12.1875 13.5014 12.1875 13.75C12.1875 13.9986 12.0887 14.2371 11.9129 14.4129C11.7371 14.5887 11.4986 14.6875 11.25 14.6875H3.75C3.50136 14.6875 3.2629 14.5887 3.08709 14.4129C2.91127 14.2371 2.8125 13.9986 2.8125 13.75ZM2.8125 20C2.8125 19.7514 2.91127 19.5129 3.08709 19.3371C3.2629 19.1613 3.50136 19.0625 3.75 19.0625H12.5C12.7486 19.0625 12.9871 19.1613 13.1629 19.3371C13.3387 19.5129 13.4375 19.7514 13.4375 20C13.4375 20.2486 13.3387 20.4871 13.1629 20.6629C12.9871 20.8387 12.7486 20.9375 12.5 20.9375H3.75C3.50136 20.9375 3.2629 20.8387 3.08709 20.6629C2.91127 20.4871 2.8125 20.2486 2.8125 20Z" fill="white"/>
<path d="M16.25 14.6437C16.25 16.8337 18.9537 19.1624 20.6125 20.3849C21.18 20.8037 21.4637 21.0124 21.875 21.0124C22.2863 21.0124 22.57 20.8037 23.1375 20.3849C24.7963 19.1624 27.5 16.8349 27.5 14.6437C27.5 11.2974 24.4062 10.0474 21.875 12.6324C19.3438 10.0474 16.25 11.2974 16.25 14.6437Z" fill="white"/>
</svg>
