<svg width="150" height="150" viewBox="0 0 150 150" fill="none" xmlns="http://www.w3.org/2000/svg">
<circle cx="75" cy="75" r="75" fill="#F8F8F8" fill-opacity="0.68"/>
<path d="M86.8059 82.4402C86.5874 82.4088 86.3649 82.434 86.1578 82.5138C85.9506 82.5935 85.7649 82.7254 85.6169 82.8979C85.4663 83.0675 85.3559 83.2722 85.2947 83.4955C85.2334 83.7187 85.223 83.954 85.2644 84.1823C86.0366 88.4637 88.6356 94.3396 96.6145 97.998C97.5601 98.4291 99.0205 98.7657 100.873 99.188C107.805 100.771 119.399 103.422 122.247 114.637C122.294 114.824 122.377 115 122.489 115.154C122.601 115.308 122.741 115.437 122.9 115.534C123.059 115.631 123.235 115.693 123.418 115.719C123.6 115.744 123.785 115.731 123.963 115.68C124.141 115.63 124.307 115.543 124.453 115.425C124.599 115.306 124.721 115.159 124.813 114.991C124.905 114.823 124.964 114.637 124.988 114.444C125.012 114.252 125 114.056 124.952 113.869C121.659 100.915 108.524 97.9124 101.466 96.3002C99.8318 95.9252 98.419 95.6034 97.728 95.2845C92.9328 93.0877 89.8358 89.8279 88.4929 85.5819C101.815 86.6272 107.847 81.0259 108.113 80.7719C108.277 80.6153 108.403 80.4199 108.482 80.2018C108.56 79.9837 108.588 79.7491 108.564 79.5172C108.54 79.2852 108.465 79.0626 108.343 78.8675C108.222 78.6725 108.059 78.5105 107.867 78.395C100.179 73.7592 100.179 57.7408 100.179 51.7084C100.179 34.8396 89.4133 21.4668 75.6125 21.2571C75.4811 21.2525 75.3496 21.2496 75.218 21.2483C61.2158 21.331 49.8209 34.7185 49.8209 51.0943C49.8209 57.1266 49.8209 73.148 42.133 77.7808C41.9348 77.9023 41.7677 78.0731 41.6463 78.2782C41.5249 78.4833 41.4527 78.7167 41.4362 78.9579C41.4196 79.1992 41.4592 79.441 41.5514 79.6625C41.6435 79.8839 41.7856 80.0783 41.9651 80.2286C42.3512 80.5446 50.884 87.4362 61.3836 85.3427C59.9792 89.4116 56.9242 92.5414 52.2689 94.6762C51.5946 94.9863 50.2518 95.3258 48.6963 95.7156C41.5902 97.499 28.3601 100.821 25.0477 113.866C25.0001 114.053 24.988 114.249 25.012 114.441C25.036 114.634 25.0957 114.819 25.1877 114.987C25.3734 115.327 25.6793 115.574 26.038 115.676C26.3968 115.777 26.779 115.724 27.1006 115.528C27.4223 115.332 27.6569 115.009 27.753 114.631C30.6318 103.28 42.3484 100.342 49.3453 98.5827C51.0994 98.1427 52.4843 97.7943 53.3851 97.3839C61.364 93.7255 63.9603 87.8496 64.7352 83.5681C64.7812 83.3173 64.7644 83.0582 64.6864 82.8163C64.6083 82.5745 64.4719 82.3583 64.2904 82.1892C64.1104 82.0186 63.8913 81.9006 63.6548 81.8467C63.4183 81.7929 63.1726 81.8051 62.9419 81.8821C55.3687 84.3979 48.3717 80.9373 45.3139 79.018C52.6186 72.5634 52.6186 57.7083 52.6186 51.0943C52.6186 36.3396 62.7629 24.2748 75.3355 24.1951L75.6321 24.2128C88.0313 24.3988 97.3811 36.2185 97.3811 51.7084C97.3811 58.3254 97.3811 73.213 104.717 79.6676C102.19 81.1912 96.4299 83.6567 86.8059 82.4402Z" fill="#347831"/>
</svg>
