<svg width="30" height="29" viewBox="0 0 30 29" fill="none" xmlns="http://www.w3.org/2000/svg">
<g clip-path="url(#clip0_101_1144)">
<path d="M26.8751 4.67188H24.1667V6.2292H26.6667V23.3597H3.33338V6.2292H5.83338V4.67188H3.12505C2.93025 4.67492 2.738 4.71379 2.55927 4.78627C2.38055 4.85875 2.21886 4.96341 2.08344 5.09429C1.94801 5.22517 1.84151 5.37969 1.77001 5.54904C1.6985 5.71838 1.66341 5.89923 1.66672 6.08125V23.5077C1.66341 23.6897 1.6985 23.8705 1.77001 24.0399C1.84151 24.2092 1.94801 24.3637 2.08344 24.4946C2.21886 24.6255 2.38055 24.7302 2.55927 24.8026C2.738 24.8751 2.93025 24.914 3.12505 24.917H26.8751C27.0699 24.914 27.2621 24.8751 27.4408 24.8026C27.6196 24.7302 27.7812 24.6255 27.9167 24.4946C28.0521 24.3637 28.1586 24.2092 28.2301 24.0399C28.3016 23.8705 28.3367 23.6897 28.3334 23.5077V6.08125C28.3367 5.89923 28.3016 5.71838 28.2301 5.54904C28.1586 5.37969 28.0521 5.22517 27.9167 5.09429C27.7812 4.96341 27.6196 4.85875 27.4408 4.78627C27.2621 4.71379 27.0699 4.67492 26.8751 4.67188Z" fill="white"/>
<path d="M6.66675 10.9011H8.33341V12.4584H6.66675V10.9011Z" fill="white"/>
<path d="M11.6667 10.9011H13.3334V12.4584H11.6667V10.9011Z" fill="white"/>
<path d="M16.6667 10.9011H18.3334V12.4584H16.6667V10.9011Z" fill="white"/>
<path d="M21.6667 10.9011H23.3334V12.4584H21.6667V10.9011Z" fill="white"/>
<path d="M6.66675 14.7944H8.33341V16.3518H6.66675V14.7944Z" fill="white"/>
<path d="M11.6667 14.7944H13.3334V16.3518H11.6667V14.7944Z" fill="white"/>
<path d="M16.6667 14.7944H18.3334V16.3518H16.6667V14.7944Z" fill="white"/>
<path d="M21.6667 14.7944H23.3334V16.3518H21.6667V14.7944Z" fill="white"/>
<path d="M6.66675 18.6877H8.33341V20.2451H6.66675V18.6877Z" fill="white"/>
<path d="M11.6667 18.6877H13.3334V20.2451H11.6667V18.6877Z" fill="white"/>
<path d="M16.6667 18.6877H18.3334V20.2451H16.6667V18.6877Z" fill="white"/>
<path d="M21.6667 18.6877H23.3334V20.2451H21.6667V18.6877Z" fill="white"/>
<path d="M8.33333 7.78665C8.55435 7.78665 8.76631 7.70462 8.92259 7.55859C9.07887 7.41256 9.16667 7.21451 9.16667 7.00799V2.33603C9.16667 2.12952 9.07887 1.93146 8.92259 1.78544C8.76631 1.63941 8.55435 1.55737 8.33333 1.55737C8.11232 1.55737 7.90036 1.63941 7.74408 1.78544C7.5878 1.93146 7.5 2.12952 7.5 2.33603V7.00799C7.5 7.21451 7.5878 7.41256 7.74408 7.55859C7.90036 7.70462 8.11232 7.78665 8.33333 7.78665Z" fill="white"/>
<path d="M21.6666 7.78665C21.8876 7.78665 22.0996 7.70462 22.2558 7.55859C22.4121 7.41256 22.4999 7.21451 22.4999 7.00799V2.33603C22.4999 2.12952 22.4121 1.93146 22.2558 1.78544C22.0996 1.63941 21.8876 1.55737 21.6666 1.55737C21.4456 1.55737 21.2336 1.63941 21.0773 1.78544C20.921 1.93146 20.8333 2.12952 20.8333 2.33603V7.00799C20.8333 7.21451 20.921 7.41256 21.0773 7.55859C21.2336 7.70462 21.4456 7.78665 21.6666 7.78665Z" fill="white"/>
<path d="M10.8333 4.67188H19.1666V6.2292H10.8333V4.67188Z" fill="white"/>
</g>
<rect x="1" y="1" width="28" height="26.0318" stroke="white" stroke-width="2"/>
<defs>
<clipPath id="clip0_101_1144">
<rect width="30" height="28.0318" fill="white"/>
</clipPath>
</defs>
</svg>
