<svg width="5" height="27" viewBox="0 0 5 27" fill="none" xmlns="http://www.w3.org/2000/svg">
<path d="M2.5 4C3.32843 4 4 3.32843 4 2.5C4 1.67157 3.32843 1 2.5 1C1.67157 1 1 1.67157 1 2.5C1 3.32843 1.67157 4 2.5 4Z" fill="white" stroke="white" stroke-width="1.5" stroke-linecap="round" stroke-linejoin="round"/>
<path d="M2.5 15C3.32843 15 4 14.3284 4 13.5C4 12.6716 3.32843 12 2.5 12C1.67157 12 1 12.6716 1 13.5C1 14.3284 1.67157 15 2.5 15Z" fill="white" stroke="white" stroke-width="1.5" stroke-linecap="round" stroke-linejoin="round"/>
<path d="M2.5 26C3.32843 26 4 25.3284 4 24.5C4 23.6716 3.32843 23 2.5 23C1.67157 23 1 23.6716 1 24.5C1 25.3284 1.67157 26 2.5 26Z" fill="white" stroke="white" stroke-width="1.5" stroke-linecap="round" stroke-linejoin="round"/>
</svg>
