<svg width="24" height="24" viewBox="0 0 24 24" fill="none" xmlns="http://www.w3.org/2000/svg">
<path d="M22.7422 0.592537L23.4004 1.24366C24.3075 2.142 24.1702 3.7345 23.0914 4.80058L9.51748 18.2281L5.11965 19.8195C4.56741 20.0204 4.02967 19.7599 3.92034 19.2402C3.88339 19.0516 3.90079 18.8566 3.97054 18.6773L5.61053 14.2894L19.1465 0.898235C20.2253 -0.167847 21.8352 -0.305798 22.7422 0.592537ZM8.92508 1.9279C9.07159 1.9279 9.21666 1.95644 9.35201 2.01191C9.48737 2.06737 9.61036 2.14866 9.71395 2.25114C9.81755 2.35362 9.89973 2.47528 9.95579 2.60917C10.0119 2.74307 10.0407 2.88658 10.0407 3.0315C10.0407 3.17643 10.0119 3.31994 9.95579 3.45384C9.89973 3.58773 9.81755 3.70939 9.71395 3.81187C9.61036 3.91435 9.48737 3.99564 9.35201 4.0511C9.21666 4.10656 9.07159 4.13511 8.92508 4.13511H4.46254C3.87077 4.13511 3.30324 4.36765 2.88479 4.78159C2.46635 5.19552 2.23127 5.75693 2.23127 6.34232V19.5856C2.23127 20.171 2.46635 20.7324 2.88479 21.1463C3.30324 21.5602 3.87077 21.7928 4.46254 21.7928H17.8502C18.4419 21.7928 19.0095 21.5602 19.4279 21.1463C19.8464 20.7324 20.0814 20.171 20.0814 19.5856V15.1712C20.0814 14.8785 20.199 14.5978 20.4082 14.3908C20.6174 14.1838 20.9012 14.0676 21.1971 14.0676C21.493 14.0676 21.7767 14.1838 21.9859 14.3908C22.1952 14.5978 22.3127 14.8785 22.3127 15.1712V19.5856C22.3127 20.7564 21.8425 21.8792 21.0057 22.707C20.1688 23.5349 19.0337 24 17.8502 24H4.46254C3.279 24 2.14394 23.5349 1.30705 22.707C0.470159 21.8792 0 20.7564 0 19.5856V6.34232C0 5.17154 0.470159 4.04872 1.30705 3.22085C2.14394 2.39299 3.279 1.9279 4.46254 1.9279H8.92508Z" fill="#347831"/>
</svg>
