 <svg
            width="49"
            height="50"
            viewBox="0 0 49 50"
            fill="none"
            xmlns="http://www.w3.org/2000/svg"
          >
            <path
              d="M24.4771 45C29.6705 45 34.6512 42.8929 38.3235 39.1421C41.9958 35.3914 44.0588 30.3043 44.0588 25C44.0588 19.6957 41.9958 14.6086 38.3235 10.8579C34.6512 7.10714 29.6705 5 24.4771 5C19.2837 5 14.3031 7.10714 10.6308 10.8579C6.95849 14.6086 4.89542 19.6957 4.89542 25C4.89542 30.3043 6.95849 35.3914 10.6308 39.1421C14.3031 42.8929 19.2837 45 24.4771 45ZM24.4771 50C10.9584 50 0 38.8075 0 25C0 11.1925 10.9584 0 24.4771 0C37.9958 0 48.9542 11.1925 48.9542 25C48.9542 38.8075 37.9958 50 24.4771 50ZM22.0294 35H26.9248V40H22.0294V35ZM22.0294 10H26.9248V30H22.0294V10Z"
              fill="#111111"
            />
          </svg>