<svg width="30" height="31" viewBox="0 0 30 31" fill="none" xmlns="http://www.w3.org/2000/svg">
<path d="M14.9172 16.4026C18.652 16.4026 21.6797 12.8187 21.6797 8.39771C21.6797 3.97673 18.652 0.392822 14.9172 0.392822C11.1824 0.392822 8.15479 3.97673 8.15479 8.39771C8.15479 12.8187 11.1824 16.4026 14.9172 16.4026Z" fill="white"/>
<path d="M23.3702 14.4014C26.1713 14.4014 28.442 11.7134 28.442 8.39771C28.442 5.08198 26.1713 2.39404 23.3702 2.39404C20.5691 2.39404 18.2983 5.08198 18.2983 8.39771C18.2983 11.7134 20.5691 14.4014 23.3702 14.4014Z" fill="white"/>
<path d="M6.46417 14.4014C9.26526 14.4014 11.536 11.7134 11.536 8.39771C11.536 5.08198 9.26526 2.39404 6.46417 2.39404C3.66307 2.39404 1.39233 5.08198 1.39233 8.39771C1.39233 11.7134 3.66307 14.4014 6.46417 14.4014Z" fill="white"/>
<path fill-rule="evenodd" clip-rule="evenodd" d="M24.3322 26.4087H28.2646C29.2654 26.4087 30.0313 25.3881 29.7895 24.2394C29.1657 21.2976 27.5089 16.4026 23.3703 16.4026C21.8724 16.4026 20.6991 17.043 19.7828 18.0036C22.3323 19.9588 23.6509 23.3869 24.3322 26.4087ZM10.0517 18.0036C9.06869 16.9544 7.78762 16.3827 6.46419 16.4026C2.32557 16.4026 0.668775 21.2976 0.0449396 24.2394C-0.196818 25.3881 0.569029 26.4087 1.56987 26.4087H5.50392C6.18524 23.3869 7.50222 19.9588 10.0517 18.0036Z" fill="white"/>
<path d="M14.9172 18.4038C21.1877 18.4038 22.8056 25.0098 23.2248 28.4219C23.3601 29.5166 22.6128 30.4111 21.6796 30.4111H8.15475C7.22153 30.4111 6.47597 29.5166 6.60953 28.4219C7.0288 25.0098 8.64671 18.4038 14.9172 18.4038Z" fill="white"/>
</svg>
