<svg width="18" height="5" viewBox="0 0 18 5" fill="none" xmlns="http://www.w3.org/2000/svg">
<path d="M3.79297 2.16748C3.79297 2.69791 3.59316 3.20662 3.2375 3.58169C2.88184 3.95677 2.39946 4.16748 1.89648 4.16748C1.3935 4.16748 0.911126 3.95677 0.555467 3.58169C0.199807 3.20662 0 2.69791 0 2.16748C0 1.63705 0.199807 1.12834 0.555467 0.753267C0.911126 0.378195 1.3935 0.16748 1.89648 0.16748C2.39946 0.16748 2.88184 0.378195 3.2375 0.753267C3.59316 1.12834 3.79297 1.63705 3.79297 2.16748ZM10.4307 2.16748C10.4307 2.69791 10.2308 3.20662 9.87519 3.58169C9.51953 3.95677 9.03715 4.16748 8.53417 4.16748C8.03119 4.16748 7.54882 3.95677 7.19316 3.58169C6.8375 3.20662 6.63769 2.69791 6.63769 2.16748C6.63769 1.63705 6.8375 1.12834 7.19316 0.753267C7.54882 0.378195 8.03119 0.16748 8.53417 0.16748C9.03715 0.16748 9.51953 0.378195 9.87519 0.753267C10.2308 1.12834 10.4307 1.63705 10.4307 2.16748ZM17.0683 2.16748C17.0683 2.69791 16.8685 3.20662 16.5129 3.58169C16.1572 3.95677 15.6748 4.16748 15.1719 4.16748C14.6689 4.16748 14.1865 3.95677 13.8308 3.58169C13.4752 3.20662 13.2754 2.69791 13.2754 2.16748C13.2754 1.63705 13.4752 1.12834 13.8308 0.753267C14.1865 0.378195 14.6689 0.16748 15.1719 0.16748C15.6748 0.16748 16.1572 0.378195 16.5129 0.753267C16.8685 1.12834 17.0683 1.63705 17.0683 2.16748Z" fill="#FFA500"/>
</svg>
