<svg width="285" height="181" viewBox="0 0 285 181" fill="none" xmlns="http://www.w3.org/2000/svg">
<rect width="280" height="176.372" rx="30" fill="#235623"/>
<g filter="url(#filter0_f_280_732)">
<path d="M164.044 176.454L220.328 138.086C234.733 128.267 253.333 127.096 268.751 135.012V135.012C272.782 137.081 276.495 139.728 279.762 142.863V142.863" stroke="white"/>
</g>
<g filter="url(#filter1_f_280_732)">
<path d="M178.383 175.901L220.337 147.229C234.733 137.39 253.331 136.203 268.749 144.118V144.118C272.779 146.187 276.491 148.833 279.757 151.967V151.967" stroke="white"/>
</g>
<g filter="url(#filter2_f_280_732)">
<path d="M192.736 176.471L219.643 157.345C233.871 147.231 252.497 145.855 267.932 153.778V153.778C271.913 155.822 275.573 158.433 278.8 161.529L278.86 161.587" stroke="white"/>
</g>
<g filter="url(#filter3_f_280_732)">
<path d="M206.193 176.471L219.566 167.151V167.151C234.875 156.268 254.998 155.055 271.365 164.026L277.065 167.151" stroke="white"/>
</g>
<g filter="url(#filter4_f_280_732)">
<path d="M222.341 176.213L223.809 175.166C238.192 164.908 257.091 163.647 272.58 171.912V171.912" stroke="white"/>
</g>
<path d="M27.76 48.62V59H26.395V51.26L22.945 59H21.985L18.52 51.245V59H17.155V48.62H18.625L22.465 57.2L26.305 48.62H27.76ZM29.5649 54.86C29.5649 54.02 29.7349 53.285 30.0749 52.655C30.4149 52.015 30.8799 51.52 31.4699 51.17C32.0699 50.82 32.7349 50.645 33.4649 50.645C34.1849 50.645 34.8099 50.8 35.3399 51.11C35.8699 51.42 36.2649 51.81 36.5249 52.28V50.78H37.9049V59H36.5249V57.47C36.2549 57.95 35.8499 58.35 35.3099 58.67C34.7799 58.98 34.1599 59.135 33.4499 59.135C32.7199 59.135 32.0599 58.955 31.4699 58.595C30.8799 58.235 30.4149 57.73 30.0749 57.08C29.7349 56.43 29.5649 55.69 29.5649 54.86ZM36.5249 54.875C36.5249 54.255 36.3999 53.715 36.1499 53.255C35.8999 52.795 35.5599 52.445 35.1299 52.205C34.7099 51.955 34.2449 51.83 33.7349 51.83C33.2249 51.83 32.7599 51.95 32.3399 52.19C31.9199 52.43 31.5849 52.78 31.3349 53.24C31.0849 53.7 30.9599 54.24 30.9599 54.86C30.9599 55.49 31.0849 56.04 31.3349 56.51C31.5849 56.97 31.9199 57.325 32.3399 57.575C32.7599 57.815 33.2249 57.935 33.7349 57.935C34.2449 57.935 34.7099 57.815 35.1299 57.575C35.5599 57.325 35.8999 56.97 36.1499 56.51C36.3999 56.04 36.5249 55.495 36.5249 54.875ZM47.2916 50.78L42.3416 62.87H40.9316L42.5516 58.91L39.2366 50.78H40.7516L43.3316 57.44L45.8816 50.78H47.2916ZM52.2728 57.905C53.5428 56.885 54.5378 56.05 55.2578 55.4C55.9778 54.74 56.5828 54.055 57.0728 53.345C57.5728 52.625 57.8228 51.92 57.8228 51.23C57.8228 50.58 57.6628 50.07 57.3428 49.7C57.0328 49.32 56.5278 49.13 55.8278 49.13C55.1478 49.13 54.6178 49.345 54.2378 49.775C53.8678 50.195 53.6678 50.76 53.6378 51.47H52.3178C52.3578 50.35 52.6978 49.485 53.3378 48.875C53.9778 48.265 54.8028 47.96 55.8128 47.96C56.8428 47.96 57.6578 48.245 58.2578 48.815C58.8678 49.385 59.1728 50.17 59.1728 51.17C59.1728 52 58.9228 52.81 58.4228 53.6C57.9328 54.38 57.3728 55.07 56.7428 55.67C56.1128 56.26 55.3078 56.95 54.3278 57.74H59.4878V58.88H52.2728V57.905ZM61.0657 53.465C61.0657 51.745 61.3457 50.405 61.9057 49.445C62.4657 48.475 63.4457 47.99 64.8457 47.99C66.2357 47.99 67.2107 48.475 67.7707 49.445C68.3307 50.405 68.6107 51.745 68.6107 53.465C68.6107 55.215 68.3307 56.575 67.7707 57.545C67.2107 58.515 66.2357 59 64.8457 59C63.4457 59 62.4657 58.515 61.9057 57.545C61.3457 56.575 61.0657 55.215 61.0657 53.465ZM67.2607 53.465C67.2607 52.595 67.2007 51.86 67.0807 51.26C66.9707 50.65 66.7357 50.16 66.3757 49.79C66.0257 49.42 65.5157 49.235 64.8457 49.235C64.1657 49.235 63.6457 49.42 63.2857 49.79C62.9357 50.16 62.7007 50.65 62.5807 51.26C62.4707 51.86 62.4157 52.595 62.4157 53.465C62.4157 54.365 62.4707 55.12 62.5807 55.73C62.7007 56.34 62.9357 56.83 63.2857 57.2C63.6457 57.57 64.1657 57.755 64.8457 57.755C65.5157 57.755 66.0257 57.57 66.3757 57.2C66.7357 56.83 66.9707 56.34 67.0807 55.73C67.2007 55.12 67.2607 54.365 67.2607 53.465ZM70.3197 57.905C71.5897 56.885 72.5847 56.05 73.3047 55.4C74.0247 54.74 74.6297 54.055 75.1197 53.345C75.6197 52.625 75.8697 51.92 75.8697 51.23C75.8697 50.58 75.7097 50.07 75.3897 49.7C75.0797 49.32 74.5747 49.13 73.8747 49.13C73.1947 49.13 72.6647 49.345 72.2847 49.775C71.9147 50.195 71.7147 50.76 71.6847 51.47H70.3647C70.4047 50.35 70.7447 49.485 71.3847 48.875C72.0247 48.265 72.8497 47.96 73.8597 47.96C74.8897 47.96 75.7047 48.245 76.3047 48.815C76.9147 49.385 77.2197 50.17 77.2197 51.17C77.2197 52 76.9697 52.81 76.4697 53.6C75.9797 54.38 75.4197 55.07 74.7897 55.67C74.1597 56.26 73.3547 56.95 72.3747 57.74H77.5347V58.88H70.3197V57.905ZM79.0826 50.885C79.1526 49.965 79.5076 49.245 80.1476 48.725C80.7876 48.205 81.6176 47.945 82.6376 47.945C83.3176 47.945 83.9026 48.07 84.3926 48.32C84.8926 48.56 85.2676 48.89 85.5176 49.31C85.7776 49.73 85.9076 50.205 85.9076 50.735C85.9076 51.355 85.7276 51.89 85.3676 52.34C85.0176 52.79 84.5576 53.08 83.9876 53.21V53.285C84.6376 53.445 85.1526 53.76 85.5326 54.23C85.9126 54.7 86.1026 55.315 86.1026 56.075C86.1026 56.645 85.9726 57.16 85.7126 57.62C85.4526 58.07 85.0626 58.425 84.5426 58.685C84.0226 58.945 83.3976 59.075 82.6676 59.075C81.6076 59.075 80.7376 58.8 80.0576 58.25C79.3776 57.69 78.9976 56.9 78.9176 55.88H80.2376C80.3076 56.48 80.5526 56.97 80.9726 57.35C81.3926 57.73 81.9526 57.92 82.6526 57.92C83.3526 57.92 83.8826 57.74 84.2426 57.38C84.6126 57.01 84.7976 56.535 84.7976 55.955C84.7976 55.205 84.5476 54.665 84.0476 54.335C83.5476 54.005 82.7926 53.84 81.7826 53.84H81.4376V52.7H81.7976C82.7176 52.69 83.4126 52.54 83.8826 52.25C84.3526 51.95 84.5876 51.49 84.5876 50.87C84.5876 50.34 84.4126 49.915 84.0626 49.595C83.7226 49.275 83.2326 49.115 82.5926 49.115C81.9726 49.115 81.4726 49.275 81.0926 49.595C80.7126 49.915 80.4876 50.345 80.4176 50.885H79.0826Z" fill="white"/>
<path d="M19.36 37.52H24.24V39H17.54V25.06H19.36V37.52ZM25.4928 33.48C25.4928 32.36 25.7195 31.38 26.1728 30.54C26.6261 29.6867 27.2461 29.0267 28.0328 28.56C28.8328 28.0933 29.7195 27.86 30.6928 27.86C31.6528 27.86 32.4861 28.0667 33.1928 28.48C33.8995 28.8933 34.4261 29.4133 34.7728 30.04V28.04H36.6128V39H34.7728V36.96C34.4128 37.6 33.8728 38.1333 33.1528 38.56C32.4461 38.9733 31.6195 39.18 30.6728 39.18C29.6995 39.18 28.8195 38.94 28.0328 38.46C27.2461 37.98 26.6261 37.3067 26.1728 36.44C25.7195 35.5733 25.4928 34.5867 25.4928 33.48ZM34.7728 33.5C34.7728 32.6733 34.6061 31.9533 34.2728 31.34C33.9395 30.7267 33.4861 30.26 32.9128 29.94C32.3528 29.6067 31.7328 29.44 31.0528 29.44C30.3728 29.44 29.7528 29.6 29.1928 29.92C28.6328 30.24 28.1861 30.7067 27.8528 31.32C27.5195 31.9333 27.3528 32.6533 27.3528 33.48C27.3528 34.32 27.5195 35.0533 27.8528 35.68C28.1861 36.2933 28.6328 36.7667 29.1928 37.1C29.7528 37.42 30.3728 37.58 31.0528 37.58C31.7328 37.58 32.3528 37.42 32.9128 37.1C33.4861 36.7667 33.9395 36.2933 34.2728 35.68C34.6061 35.0533 34.7728 34.3267 34.7728 33.5ZM45.0284 27.84C46.3618 27.84 47.4418 28.2467 48.2684 29.06C49.0951 29.86 49.5084 31.02 49.5084 32.54V39H47.7084V32.8C47.7084 31.7067 47.4351 30.8733 46.8884 30.3C46.3418 29.7133 45.5951 29.42 44.6484 29.42C43.6884 29.42 42.9218 29.72 42.3484 30.32C41.7884 30.92 41.5084 31.7933 41.5084 32.94V39H39.6884V28.04H41.5084V29.6C41.8684 29.04 42.3551 28.6067 42.9684 28.3C43.5951 27.9933 44.2818 27.84 45.0284 27.84ZM57.0014 27.86C57.9481 27.86 58.7747 28.0667 59.4814 28.48C60.2014 28.8933 60.7347 29.4133 61.0814 30.04V28.04H62.9214V39.24C62.9214 40.24 62.7081 41.1267 62.2814 41.9C61.8547 42.6867 61.2414 43.3 60.4414 43.74C59.6547 44.18 58.7347 44.4 57.6814 44.4C56.2414 44.4 55.0414 44.06 54.0814 43.38C53.1214 42.7 52.5547 41.7733 52.3814 40.6H54.1814C54.3814 41.2667 54.7947 41.8 55.4214 42.2C56.0481 42.6133 56.8014 42.82 57.6814 42.82C58.6814 42.82 59.4947 42.5067 60.1214 41.88C60.7614 41.2533 61.0814 40.3733 61.0814 39.24V36.94C60.7214 37.58 60.1881 38.1133 59.4814 38.54C58.7747 38.9667 57.9481 39.18 57.0014 39.18C56.0281 39.18 55.1414 38.94 54.3414 38.46C53.5547 37.98 52.9347 37.3067 52.4814 36.44C52.0281 35.5733 51.8014 34.5867 51.8014 33.48C51.8014 32.36 52.0281 31.38 52.4814 30.54C52.9347 29.6867 53.5547 29.0267 54.3414 28.56C55.1414 28.0933 56.0281 27.86 57.0014 27.86ZM61.0814 33.5C61.0814 32.6733 60.9147 31.9533 60.5814 31.34C60.2481 30.7267 59.7947 30.26 59.2214 29.94C58.6614 29.6067 58.0414 29.44 57.3614 29.44C56.6814 29.44 56.0614 29.6 55.5014 29.92C54.9414 30.24 54.4947 30.7067 54.1614 31.32C53.8281 31.9333 53.6614 32.6533 53.6614 33.48C53.6614 34.32 53.8281 35.0533 54.1614 35.68C54.4947 36.2933 54.9414 36.7667 55.5014 37.1C56.0614 37.42 56.6814 37.58 57.3614 37.58C58.0414 37.58 58.6614 37.42 59.2214 37.1C59.7947 36.7667 60.2481 36.2933 60.5814 35.68C60.9147 35.0533 61.0814 34.3267 61.0814 33.5ZM75.717 28.04V39H73.897V37.38C73.5504 37.94 73.0637 38.38 72.437 38.7C71.8237 39.0067 71.1437 39.16 70.397 39.16C69.5437 39.16 68.777 38.9867 68.097 38.64C67.417 38.28 66.877 37.7467 66.477 37.04C66.0904 36.3333 65.897 35.4733 65.897 34.46V28.04H67.697V34.22C67.697 35.3 67.9704 36.1333 68.517 36.72C69.0637 37.2933 69.8104 37.58 70.757 37.58C71.7304 37.58 72.497 37.28 73.057 36.68C73.617 36.08 73.897 35.2067 73.897 34.06V28.04H75.717ZM78.11 33.48C78.11 32.36 78.3367 31.38 78.79 30.54C79.2433 29.6867 79.8633 29.0267 80.65 28.56C81.45 28.0933 82.3367 27.86 83.31 27.86C84.27 27.86 85.1033 28.0667 85.81 28.48C86.5167 28.8933 87.0433 29.4133 87.39 30.04V28.04H89.23V39H87.39V36.96C87.03 37.6 86.49 38.1333 85.77 38.56C85.0633 38.9733 84.2367 39.18 83.29 39.18C82.3167 39.18 81.4367 38.94 80.65 38.46C79.8633 37.98 79.2433 37.3067 78.79 36.44C78.3367 35.5733 78.11 34.5867 78.11 33.48ZM87.39 33.5C87.39 32.6733 87.2233 31.9533 86.89 31.34C86.5567 30.7267 86.1033 30.26 85.53 29.94C84.97 29.6067 84.35 29.44 83.67 29.44C82.99 29.44 82.37 29.6 81.81 29.92C81.25 30.24 80.8033 30.7067 80.47 31.32C80.1367 31.9333 79.97 32.6533 79.97 33.48C79.97 34.32 80.1367 35.0533 80.47 35.68C80.8033 36.2933 81.25 36.7667 81.81 37.1C82.37 37.42 82.99 37.58 83.67 37.58C84.35 37.58 84.97 37.42 85.53 37.1C86.1033 36.7667 86.5567 36.2933 86.89 35.68C87.2233 35.0533 87.39 34.3267 87.39 33.5ZM96.8256 27.86C97.7723 27.86 98.599 28.0667 99.3056 28.48C100.026 28.8933 100.559 29.4133 100.906 30.04V28.04H102.746V39.24C102.746 40.24 102.532 41.1267 102.106 41.9C101.679 42.6867 101.066 43.3 100.266 43.74C99.479 44.18 98.559 44.4 97.5056 44.4C96.0656 44.4 94.8656 44.06 93.9056 43.38C92.9456 42.7 92.379 41.7733 92.2056 40.6H94.0056C94.2056 41.2667 94.619 41.8 95.2456 42.2C95.8723 42.6133 96.6256 42.82 97.5056 42.82C98.5056 42.82 99.319 42.5067 99.9456 41.88C100.586 41.2533 100.906 40.3733 100.906 39.24V36.94C100.546 37.58 100.012 38.1133 99.3056 38.54C98.599 38.9667 97.7723 39.18 96.8256 39.18C95.8523 39.18 94.9656 38.94 94.1656 38.46C93.379 37.98 92.759 37.3067 92.3056 36.44C91.8523 35.5733 91.6256 34.5867 91.6256 33.48C91.6256 32.36 91.8523 31.38 92.3056 30.54C92.759 29.6867 93.379 29.0267 94.1656 28.56C94.9656 28.0933 95.8523 27.86 96.8256 27.86ZM100.906 33.5C100.906 32.6733 100.739 31.9533 100.406 31.34C100.072 30.7267 99.619 30.26 99.0456 29.94C98.4856 29.6067 97.8656 29.44 97.1856 29.44C96.5056 29.44 95.8856 29.6 95.3256 29.92C94.7656 30.24 94.319 30.7067 93.9856 31.32C93.6523 31.9333 93.4856 32.6533 93.4856 33.48C93.4856 34.32 93.6523 35.0533 93.9856 35.68C94.319 36.2933 94.7656 36.7667 95.3256 37.1C95.8856 37.42 96.5056 37.58 97.1856 37.58C97.8656 37.58 98.4856 37.42 99.0456 37.1C99.619 36.7667 100.072 36.2933 100.406 35.68C100.739 35.0533 100.906 34.3267 100.906 33.5ZM115.821 33.1C115.821 33.4467 115.801 33.8133 115.761 34.2H107.001C107.068 35.28 107.435 36.1267 108.101 36.74C108.781 37.34 109.601 37.64 110.561 37.64C111.348 37.64 112.001 37.46 112.521 37.1C113.055 36.7267 113.428 36.2333 113.641 35.62H115.601C115.308 36.6733 114.721 37.5333 113.841 38.2C112.961 38.8533 111.868 39.18 110.561 39.18C109.521 39.18 108.588 38.9467 107.761 38.48C106.948 38.0133 106.308 37.3533 105.841 36.5C105.375 35.6333 105.141 34.6333 105.141 33.5C105.141 32.3667 105.368 31.3733 105.821 30.52C106.275 29.6667 106.908 29.0133 107.721 28.56C108.548 28.0933 109.495 27.86 110.561 27.86C111.601 27.86 112.521 28.0867 113.321 28.54C114.121 28.9933 114.735 29.62 115.161 30.42C115.601 31.2067 115.821 32.1 115.821 33.1ZM113.941 32.72C113.941 32.0267 113.788 31.4333 113.481 30.94C113.175 30.4333 112.755 30.0533 112.221 29.8C111.701 29.5333 111.121 29.4 110.481 29.4C109.561 29.4 108.775 29.6933 108.121 30.28C107.481 30.8667 107.115 31.68 107.021 32.72H113.941ZM134.736 41.64L131.956 38.86C131.276 39.0467 130.582 39.14 129.876 39.14C128.582 39.14 127.402 38.84 126.336 38.24C125.269 37.6267 124.422 36.78 123.796 35.7C123.182 34.6067 122.876 33.38 122.876 32.02C122.876 30.66 123.182 29.44 123.796 28.36C124.422 27.2667 125.269 26.42 126.336 25.82C127.402 25.2067 128.582 24.9 129.876 24.9C131.182 24.9 132.369 25.2067 133.436 25.82C134.502 26.42 135.342 27.26 135.956 28.34C136.569 29.42 136.876 30.6467 136.876 32.02C136.876 33.3533 136.582 34.5533 135.996 35.62C135.409 36.6867 134.602 37.5267 133.576 38.14L137.096 41.64H134.736ZM124.736 32.02C124.736 33.1267 124.956 34.1 125.396 34.94C125.849 35.78 126.462 36.4267 127.236 36.88C128.022 37.3333 128.902 37.56 129.876 37.56C130.849 37.56 131.722 37.3333 132.496 36.88C133.282 36.4267 133.896 35.78 134.336 34.94C134.789 34.1 135.016 33.1267 135.016 32.02C135.016 30.9 134.789 29.9267 134.336 29.1C133.896 28.26 133.289 27.6133 132.516 27.16C131.742 26.7067 130.862 26.48 129.876 26.48C128.889 26.48 128.009 26.7067 127.236 27.16C126.462 27.6133 125.849 28.26 125.396 29.1C124.956 29.9267 124.736 30.9 124.736 32.02ZM149.037 28.04V39H147.217V37.38C146.871 37.94 146.384 38.38 145.757 38.7C145.144 39.0067 144.464 39.16 143.717 39.16C142.864 39.16 142.097 38.9867 141.417 38.64C140.737 38.28 140.197 37.7467 139.797 37.04C139.411 36.3333 139.217 35.4733 139.217 34.46V28.04H141.017V34.22C141.017 35.3 141.291 36.1333 141.837 36.72C142.384 37.2933 143.131 37.58 144.077 37.58C145.051 37.58 145.817 37.28 146.377 36.68C146.937 36.08 147.217 35.2067 147.217 34.06V28.04H149.037ZM162.11 33.1C162.11 33.4467 162.09 33.8133 162.05 34.2H153.29C153.357 35.28 153.724 36.1267 154.39 36.74C155.07 37.34 155.89 37.64 156.85 37.64C157.637 37.64 158.29 37.46 158.81 37.1C159.344 36.7267 159.717 36.2333 159.93 35.62H161.89C161.597 36.6733 161.01 37.5333 160.13 38.2C159.25 38.8533 158.157 39.18 156.85 39.18C155.81 39.18 154.877 38.9467 154.05 38.48C153.237 38.0133 152.597 37.3533 152.13 36.5C151.664 35.6333 151.43 34.6333 151.43 33.5C151.43 32.3667 151.657 31.3733 152.11 30.52C152.564 29.6667 153.197 29.0133 154.01 28.56C154.837 28.0933 155.784 27.86 156.85 27.86C157.89 27.86 158.81 28.0867 159.61 28.54C160.41 28.9933 161.024 29.62 161.45 30.42C161.89 31.2067 162.11 32.1 162.11 33.1ZM160.23 32.72C160.23 32.0267 160.077 31.4333 159.77 30.94C159.464 30.4333 159.044 30.0533 158.51 29.8C157.99 29.5333 157.41 29.4 156.77 29.4C155.85 29.4 155.064 29.6933 154.41 30.28C153.77 30.8667 153.404 31.68 153.31 32.72H160.23ZM168.393 39.18C167.553 39.18 166.799 39.04 166.133 38.76C165.466 38.4667 164.939 38.0667 164.553 37.56C164.166 37.04 163.953 36.4467 163.913 35.78H165.793C165.846 36.3267 166.099 36.7733 166.553 37.12C167.019 37.4667 167.626 37.64 168.373 37.64C169.066 37.64 169.613 37.4867 170.013 37.18C170.413 36.8733 170.613 36.4867 170.613 36.02C170.613 35.54 170.399 35.1867 169.973 34.96C169.546 34.72 168.886 34.4867 167.993 34.26C167.179 34.0467 166.513 33.8333 165.993 33.62C165.486 33.3933 165.046 33.0667 164.673 32.64C164.313 32.2 164.133 31.6267 164.133 30.92C164.133 30.36 164.299 29.8467 164.633 29.38C164.966 28.9133 165.439 28.5467 166.053 28.28C166.666 28 167.366 27.86 168.153 27.86C169.366 27.86 170.346 28.1667 171.093 28.78C171.839 29.3933 172.239 30.2333 172.293 31.3H170.473C170.433 30.7267 170.199 30.2667 169.773 29.92C169.359 29.5733 168.799 29.4 168.093 29.4C167.439 29.4 166.919 29.54 166.533 29.82C166.146 30.1 165.953 30.4667 165.953 30.92C165.953 31.28 166.066 31.58 166.293 31.82C166.533 32.0467 166.826 32.2333 167.173 32.38C167.533 32.5133 168.026 32.6667 168.653 32.84C169.439 33.0533 170.079 33.2667 170.573 33.48C171.066 33.68 171.486 33.9867 171.833 34.4C172.193 34.8133 172.379 35.3533 172.393 36.02C172.393 36.62 172.226 37.16 171.893 37.64C171.559 38.12 171.086 38.5 170.473 38.78C169.873 39.0467 169.179 39.18 168.393 39.18ZM177.182 29.54V36C177.182 36.5333 177.295 36.9133 177.522 37.14C177.749 37.3533 178.142 37.46 178.702 37.46H180.042V39H178.402C177.389 39 176.629 38.7667 176.122 38.3C175.615 37.8333 175.362 37.0667 175.362 36V29.54H173.942V28.04H175.362V25.28H177.182V28.04H180.042V29.54H177.182Z" fill="white"/>
<path d="M261.757 31C261.757 31.5304 261.538 32.0391 261.146 32.4142C260.755 32.7893 260.225 33 259.672 33C259.118 33 258.588 32.7893 258.197 32.4142C257.806 32.0391 257.586 31.5304 257.586 31C257.586 30.4696 257.806 29.9609 258.197 29.5858C258.588 29.2107 259.118 29 259.672 29C260.225 29 260.755 29.2107 261.146 29.5858C261.538 29.9609 261.757 30.4696 261.757 31ZM269.057 31C269.057 31.5304 268.838 32.0391 268.446 32.4142C268.055 32.7893 267.525 33 266.972 33C266.418 33 265.888 32.7893 265.497 32.4142C265.106 32.0391 264.886 31.5304 264.886 31C264.886 30.4696 265.106 29.9609 265.497 29.5858C265.888 29.2107 266.418 29 266.972 29C267.525 29 268.055 29.2107 268.446 29.5858C268.838 29.9609 269.057 30.4696 269.057 31ZM276.357 31C276.357 31.5304 276.138 32.0391 275.746 32.4142C275.355 32.7893 274.825 33 274.272 33C273.718 33 273.188 32.7893 272.797 32.4142C272.406 32.0391 272.186 31.5304 272.186 31C272.186 30.4696 272.406 29.9609 272.797 29.5858C273.188 29.2107 273.718 29 274.272 29C274.825 29 275.355 29.2107 275.746 29.5858C276.138 29.9609 276.357 30.4696 276.357 31Z" fill="white"/>
<rect x="22" y="122" width="50" height="4" rx="2" fill="#FFA500"/>
<rect x="77" y="122" width="50" height="4" rx="2" fill="#FFA500"/>
<rect x="132" y="122" width="50" height="4" rx="2" fill="white" fill-opacity="0.75"/>
<rect x="132" y="122" width="25" height="4" rx="2" fill="#FFA500"/>
<rect x="187" y="122" width="50" height="4" rx="2" fill="white" fill-opacity="0.75"/>
<defs>
<filter id="filter0_f_280_732" x="159.764" y="125.303" width="124.346" height="55.564" filterUnits="userSpaceOnUse" color-interpolation-filters="sRGB">
<feFlood flood-opacity="0" result="BackgroundImageFix"/>
<feBlend mode="normal" in="SourceGraphic" in2="BackgroundImageFix" result="shape"/>
<feGaussianBlur stdDeviation="2" result="effect1_foregroundBlur_280_732"/>
</filter>
<filter id="filter1_f_280_732" x="174.103" y="134.419" width="110.002" height="45.8943" filterUnits="userSpaceOnUse" color-interpolation-filters="sRGB">
<feFlood flood-opacity="0" result="BackgroundImageFix"/>
<feBlend mode="normal" in="SourceGraphic" in2="BackgroundImageFix" result="shape"/>
<feGaussianBlur stdDeviation="2" result="effect1_foregroundBlur_280_732"/>
</filter>
<filter id="filter2_f_280_732" x="188.449" y="144.171" width="94.7588" height="36.7068" filterUnits="userSpaceOnUse" color-interpolation-filters="sRGB">
<feFlood flood-opacity="0" result="BackgroundImageFix"/>
<feBlend mode="normal" in="SourceGraphic" in2="BackgroundImageFix" result="shape"/>
<feGaussianBlur stdDeviation="2" result="effect1_foregroundBlur_280_732"/>
</filter>
<filter id="filter3_f_280_732" x="201.909" y="153.554" width="79.3989" height="27.3257" filterUnits="userSpaceOnUse" color-interpolation-filters="sRGB">
<feFlood flood-opacity="0" result="BackgroundImageFix"/>
<feBlend mode="normal" in="SourceGraphic" in2="BackgroundImageFix" result="shape"/>
<feGaussianBlur stdDeviation="2" result="effect1_foregroundBlur_280_732"/>
</filter>
<filter id="filter4_f_280_732" x="218.053" y="161.99" width="58.7651" height="18.6299" filterUnits="userSpaceOnUse" color-interpolation-filters="sRGB">
<feFlood flood-opacity="0" result="BackgroundImageFix"/>
<feBlend mode="normal" in="SourceGraphic" in2="BackgroundImageFix" result="shape"/>
<feGaussianBlur stdDeviation="2" result="effect1_foregroundBlur_280_732"/>
</filter>
</defs>
</svg>
