<svg width="30" height="31" viewBox="0 0 30 31" fill="none" xmlns="http://www.w3.org/2000/svg">
<path d="M28.7087 2.63034H16.1838V0.391218C16.1838 0.237279 16.0571 0.111328 15.9023 0.111328H13.9321C13.7773 0.111328 13.6507 0.237279 13.6507 0.391218V2.63034H1.12583C0.503105 2.63034 0 3.13064 0 3.7499V21.9428C0 22.562 0.503105 23.0623 1.12583 23.0623H13.6648V24.1819L7.86673 27.9639C7.73656 28.0479 7.70138 28.2193 7.78581 28.3487L8.85183 30.0001V30.0036C8.93627 30.133 9.11218 30.168 9.24236 30.0841L14.9172 26.3825L20.5921 30.0841C20.7223 30.168 20.8982 30.133 20.9826 30.0036V30.0001L22.0487 28.3487C22.1331 28.2193 22.0944 28.0479 21.9678 27.9639L16.1838 24.1924V23.0623H28.7087C29.3314 23.0623 29.8345 22.562 29.8345 21.9428V3.7499C29.8345 3.13064 29.3314 2.63034 28.7087 2.63034ZM27.3014 20.5433H2.53312V5.14935H27.3014V20.5433Z" fill="white"/>
</svg>
