<svg width="30" height="31" viewBox="0 0 30 31" fill="none" xmlns="http://www.w3.org/2000/svg">
<path d="M17.3377 1.51413L17.3375 1.51406C17.1864 1.45344 16.9753 1.40586 16.5829 1.37997C16.1822 1.35353 15.6678 1.35303 14.9172 1.35303C14.1667 1.35303 13.6522 1.35353 13.2516 1.37997C12.8592 1.40586 12.6481 1.45344 12.497 1.51406L12.4968 1.51413C12.2317 1.62042 11.9928 1.77547 11.7931 1.9689C11.5935 2.16217 11.437 2.38988 11.3308 2.63816C11.2589 2.8074 11.2054 3.05756 11.1844 3.59953C11.1691 4.19201 10.9992 4.76925 10.6929 5.2773C10.3854 5.78744 9.95122 6.20988 9.4341 6.50776L9.42318 6.51405L9.41211 6.52006C8.88767 6.8048 8.29928 6.95471 7.70189 6.95766C7.10694 6.9606 6.51945 6.81771 5.99381 6.54048C5.49519 6.28498 5.23649 6.19994 5.03138 6.17345C4.4537 6.10001 3.87317 6.25227 3.41792 6.58973C3.29077 6.68538 3.14548 6.83631 2.92921 7.14782C2.70663 7.46842 2.44966 7.89749 2.07434 8.52699C1.69815 9.15794 1.44271 9.58663 1.26718 9.9332C1.0957 10.2718 1.03759 10.4627 1.01842 10.6065L1.01804 10.6093C0.981987 10.8739 1.00006 11.1429 1.07152 11.4014C1.14288 11.6596 1.26646 11.9034 1.43679 12.1187C1.55746 12.2701 1.76002 12.4424 2.24345 12.7371L17.3377 1.51413ZM17.3377 1.51413C17.6028 1.62042 17.8417 1.77547 18.0414 1.9689C18.241 2.16227 18.3976 2.3901 18.5038 2.63852L18.5049 2.641C18.5763 2.8069 18.6289 3.0519 18.6501 3.59939C18.6654 4.19192 18.8353 4.76921 19.1416 5.2773C19.4491 5.78744 19.8833 6.20988 20.4004 6.50776L20.4114 6.51413M17.3377 1.51413L20.4114 6.51413M9.41834 24.8368L9.42452 24.8403C10.5071 25.4481 11.1403 26.5624 11.1842 27.7484L9.41834 24.8368ZM9.41834 24.8368L9.41211 24.8334M9.41834 24.8368L9.41211 24.8334M9.41211 24.8334C8.88767 24.5487 8.29928 24.3988 7.70189 24.3958C7.10692 24.3929 6.51942 24.5358 5.99377 24.813C5.49522 25.0685 5.23643 25.1536 5.0328 25.18C4.7469 25.2165 4.45646 25.1981 4.17849 25.126C3.90091 25.054 3.6424 24.9303 3.41729 24.7633C3.29007 24.668 3.14505 24.5177 2.92842 24.2056C2.70576 23.8849 2.44907 23.4563 2.07285 22.8266M9.41211 24.8334L2.07285 22.8266M11.3296 28.7125L11.3307 28.7149C11.4369 28.9634 11.5934 29.1912 11.7931 29.3846C11.9928 29.578 12.2317 29.733 12.4968 29.8393L12.497 29.8394C12.6481 29.9 12.8592 29.9476 13.2516 29.9735C13.6522 29.9999 14.1667 30.0004 14.9172 30.0004C15.6678 30.0004 16.1822 29.9999 16.5829 29.9735C16.9753 29.9476 17.1864 29.9 17.3375 29.8394L17.3377 29.8393C17.6028 29.733 17.8417 29.578 18.0414 29.3846C18.241 29.1913 18.3975 28.9636 18.5037 28.7153C18.5759 28.5452 18.6295 28.2951 18.6503 27.7475C18.6945 26.5629 19.3269 25.4462 20.4113 24.8395L20.4223 24.8333L20.4224 24.8334C20.9468 24.5487 21.5352 24.3988 22.1326 24.3958C22.7275 24.3929 23.315 24.5357 23.8406 24.813C24.3391 25.0684 24.598 25.1535 24.8016 25.18C25.0875 25.2165 25.378 25.1981 25.656 25.126L25.907 26.094L25.656 25.126C25.9339 25.0539 26.1928 24.93 26.4181 24.7626C26.5441 24.6687 26.6887 24.5194 26.9055 24.2067C27.128 23.8858 27.3844 23.4567 27.7601 22.8265C28.1363 22.1955 28.3918 21.7668 28.5673 21.4203C28.7388 21.0817 28.7969 20.8908 28.8161 20.747L28.8164 20.7441C28.8525 20.4795 28.8344 20.2105 28.763 19.952C28.6916 19.6937 28.5679 19.4497 28.3974 19.2343C28.2771 19.0837 28.0756 18.9121 27.5966 18.6198C27.0854 18.3172 26.6579 17.8921 26.3567 17.3812C26.054 16.8677 25.8898 16.2856 25.8819 15.69L25.8817 15.6767H25.8818C25.8818 14.4339 26.5794 13.3527 27.5907 12.7388C28.0775 12.4405 28.2786 12.2694 28.3963 12.1206L28.3969 12.1198C28.5676 11.9042 28.6915 11.66 28.763 11.4014C28.8344 11.143 28.8525 10.874 28.8165 10.6094L11.3296 28.7125ZM11.3296 28.7125C11.2579 28.546 11.2052 28.2999 11.1842 27.7485L11.3296 28.7125ZM20.4114 6.51413L20.4227 6.52022M20.4114 6.51413L20.4227 6.52022M20.4227 6.52022C20.9468 6.80458 21.5348 6.95428 22.1318 6.95724C22.7262 6.96018 23.3131 6.81756 23.8384 6.54085C24.3395 6.28487 24.5983 6.1998 24.8021 6.17337C25.0879 6.13694 25.3782 6.15541 25.656 6.22746C25.9335 6.29943 26.192 6.42313 26.4171 6.59013C26.5443 6.6854 26.6894 6.83573 26.9061 7.14782C27.1287 7.46853 27.3854 7.89719 27.7616 8.52683M20.4227 6.52022L27.7616 8.52683M2.07285 22.8266C1.69804 22.1966 1.4432 21.7673 1.26803 21.4206C1.0967 21.0815 1.03781 20.8892 1.01804 20.7441L2.07285 22.8266ZM27.7616 8.52683C28.1364 9.15683 28.3913 9.58614 28.5665 9.93286C28.7378 10.272 28.7967 10.4643 28.8164 10.6093L27.7616 8.52683Z" stroke="white" stroke-width="2"/>
<path d="M17.3377 1.51413L17.3375 1.51406C17.1864 1.45344 16.9753 1.40586 16.5829 1.37997C16.1822 1.35353 15.6678 1.35303 14.9172 1.35303C14.1667 1.35303 13.6522 1.35353 13.2516 1.37997C12.8592 1.40586 12.6481 1.45344 12.497 1.51406L12.4968 1.51413C12.2317 1.62042 11.9928 1.77547 11.7931 1.9689C11.5935 2.16217 11.437 2.38988 11.3308 2.63816C11.2589 2.8074 11.2054 3.05756 11.1844 3.59953C11.1691 4.19201 10.9992 4.76925 10.6929 5.2773C10.3854 5.78744 9.95122 6.20988 9.4341 6.50776L9.42318 6.51405L9.41211 6.52006C8.88767 6.8048 8.29928 6.95471 7.70189 6.95766C7.10694 6.9606 6.51945 6.81771 5.99381 6.54048C5.49519 6.28498 5.23649 6.19994 5.03138 6.17345C4.4537 6.10001 3.87317 6.25227 3.41792 6.58973C3.29077 6.68538 3.14548 6.83631 2.92921 7.14782C2.70663 7.46842 2.44966 7.89749 2.07434 8.52699C1.69815 9.15794 1.44271 9.58663 1.26718 9.9332C1.0957 10.2718 1.03759 10.4627 1.01842 10.6065L1.01804 10.6093C0.981987 10.8739 1.00006 11.1429 1.07152 11.4014C1.14288 11.6596 1.26646 11.9034 1.43679 12.1187C1.55746 12.2701 1.76002 12.4424 2.24345 12.7371L17.3377 1.51413ZM17.3377 1.51413C17.6028 1.62042 17.8417 1.77547 18.0414 1.9689C18.241 2.16227 18.3976 2.3901 18.5038 2.63852L18.5049 2.641C18.5763 2.8069 18.6289 3.0519 18.6501 3.59939C18.6654 4.19192 18.8353 4.76921 19.1416 5.2773C19.4491 5.78744 19.8833 6.20988 20.4004 6.50776L20.4114 6.51413M17.3377 1.51413L20.4114 6.51413M9.41834 24.8368L9.42452 24.8403C10.5071 25.4481 11.1403 26.5624 11.1842 27.7484L9.41834 24.8368ZM9.41834 24.8368L9.41211 24.8334M9.41834 24.8368L9.41211 24.8334M9.41211 24.8334C8.88767 24.5487 8.29928 24.3988 7.70189 24.3958C7.10692 24.3929 6.51942 24.5358 5.99377 24.813C5.49522 25.0685 5.23643 25.1536 5.0328 25.18C4.7469 25.2165 4.45646 25.1981 4.17849 25.126C3.90091 25.054 3.6424 24.9303 3.41729 24.7633C3.29007 24.668 3.14505 24.5177 2.92842 24.2056C2.70576 23.8849 2.44907 23.4563 2.07285 22.8266M9.41211 24.8334L2.07285 22.8266M11.3296 28.7125L11.3307 28.7149C11.4369 28.9634 11.5934 29.1912 11.7931 29.3846C11.9928 29.578 12.2317 29.733 12.4968 29.8393L12.497 29.8394C12.6481 29.9 12.8592 29.9476 13.2516 29.9735C13.6522 29.9999 14.1667 30.0004 14.9172 30.0004C15.6678 30.0004 16.1822 29.9999 16.5829 29.9735C16.9753 29.9476 17.1864 29.9 17.3375 29.8394L17.3377 29.8393C17.6028 29.733 17.8417 29.578 18.0414 29.3846C18.241 29.1913 18.3975 28.9636 18.5037 28.7153C18.5759 28.5452 18.6295 28.2951 18.6503 27.7475C18.6945 26.5629 19.3269 25.4462 20.4113 24.8395L20.4223 24.8333L20.4224 24.8334C20.9468 24.5487 21.5352 24.3988 22.1326 24.3958C22.7275 24.3929 23.315 24.5357 23.8406 24.813C24.3391 25.0684 24.598 25.1535 24.8016 25.18C25.0875 25.2165 25.378 25.1981 25.656 25.126L25.907 26.094L25.656 25.126C25.9339 25.0539 26.1928 24.93 26.4181 24.7626C26.5441 24.6687 26.6887 24.5194 26.9055 24.2067C27.128 23.8858 27.3844 23.4567 27.7601 22.8265C28.1363 22.1955 28.3918 21.7668 28.5673 21.4203C28.7388 21.0817 28.7969 20.8908 28.8161 20.747L28.8164 20.7441C28.8525 20.4795 28.8344 20.2105 28.763 19.952C28.6916 19.6937 28.5679 19.4497 28.3974 19.2343C28.2771 19.0837 28.0756 18.9121 27.5966 18.6198C27.0854 18.3172 26.6579 17.8921 26.3567 17.3812C26.054 16.8677 25.8898 16.2856 25.8819 15.69L25.8817 15.6767H25.8818C25.8818 14.4339 26.5794 13.3527 27.5907 12.7388C28.0775 12.4405 28.2786 12.2694 28.3963 12.1206L28.3969 12.1198C28.5676 11.9042 28.6915 11.66 28.763 11.4014C28.8344 11.143 28.8525 10.874 28.8165 10.6094L11.3296 28.7125ZM11.3296 28.7125C11.2579 28.546 11.2052 28.2999 11.1842 27.7485L11.3296 28.7125ZM20.4114 6.51413L20.4227 6.52022M20.4114 6.51413L20.4227 6.52022M20.4227 6.52022C20.9468 6.80458 21.5348 6.95428 22.1318 6.95724C22.7262 6.96018 23.3131 6.81756 23.8384 6.54085C24.3395 6.28487 24.5983 6.1998 24.8021 6.17337C25.0879 6.13694 25.3782 6.15541 25.656 6.22746C25.9335 6.29943 26.192 6.42313 26.4171 6.59013C26.5443 6.6854 26.6894 6.83573 26.9061 7.14782C27.1287 7.46853 27.3854 7.89719 27.7616 8.52683M20.4227 6.52022L27.7616 8.52683M2.07285 22.8266C1.69804 22.1966 1.4432 21.7673 1.26803 21.4206C1.0967 21.0815 1.03781 20.8892 1.01804 20.7441L2.07285 22.8266ZM27.7616 8.52683C28.1364 9.15683 28.3913 9.58614 28.5665 9.93286C28.7378 10.272 28.7967 10.4643 28.8164 10.6093L27.7616 8.52683Z" stroke="white" stroke-width="2"/>
<path d="M17.3377 1.51413L17.3375 1.51406C17.1864 1.45344 16.9753 1.40586 16.5829 1.37997C16.1822 1.35353 15.6678 1.35303 14.9172 1.35303C14.1667 1.35303 13.6522 1.35353 13.2516 1.37997C12.8592 1.40586 12.6481 1.45344 12.497 1.51406L12.4968 1.51413C12.2317 1.62042 11.9928 1.77547 11.7931 1.9689C11.5935 2.16217 11.437 2.38988 11.3308 2.63816C11.2589 2.8074 11.2054 3.05756 11.1844 3.59953C11.1691 4.19201 10.9992 4.76925 10.6929 5.2773C10.3854 5.78744 9.95122 6.20988 9.4341 6.50776L9.42318 6.51405L9.41211 6.52006C8.88767 6.8048 8.29928 6.95471 7.70189 6.95766C7.10694 6.9606 6.51945 6.81771 5.99381 6.54048C5.49519 6.28498 5.23649 6.19994 5.03138 6.17345C4.4537 6.10001 3.87317 6.25227 3.41792 6.58973C3.29077 6.68538 3.14548 6.83631 2.92921 7.14782C2.70663 7.46842 2.44966 7.89749 2.07434 8.52699C1.69815 9.15794 1.44271 9.58663 1.26718 9.9332C1.0957 10.2718 1.03759 10.4627 1.01842 10.6065L1.01804 10.6093C0.981987 10.8739 1.00006 11.1429 1.07152 11.4014C1.14288 11.6596 1.26646 11.9034 1.43679 12.1187C1.55746 12.2701 1.76002 12.4424 2.24345 12.7371L17.3377 1.51413ZM17.3377 1.51413C17.6028 1.62042 17.8417 1.77547 18.0414 1.9689C18.241 2.16227 18.3976 2.3901 18.5038 2.63852L18.5049 2.641C18.5763 2.8069 18.6289 3.0519 18.6501 3.59939C18.6654 4.19192 18.8353 4.76921 19.1416 5.2773C19.4491 5.78744 19.8833 6.20988 20.4004 6.50776L20.4114 6.51413M17.3377 1.51413L20.4114 6.51413M9.41834 24.8368L9.42452 24.8403C10.5071 25.4481 11.1403 26.5624 11.1842 27.7484L9.41834 24.8368ZM9.41834 24.8368L9.41211 24.8334M9.41834 24.8368L9.41211 24.8334M9.41211 24.8334C8.88767 24.5487 8.29928 24.3988 7.70189 24.3958C7.10692 24.3929 6.51942 24.5358 5.99377 24.813C5.49522 25.0685 5.23643 25.1536 5.0328 25.18C4.7469 25.2165 4.45646 25.1981 4.17849 25.126C3.90091 25.054 3.6424 24.9303 3.41729 24.7633C3.29007 24.668 3.14505 24.5177 2.92842 24.2056C2.70576 23.8849 2.44907 23.4563 2.07285 22.8266M9.41211 24.8334L2.07285 22.8266M11.3296 28.7125L11.3307 28.7149C11.4369 28.9634 11.5934 29.1912 11.7931 29.3846C11.9928 29.578 12.2317 29.733 12.4968 29.8393L12.497 29.8394C12.6481 29.9 12.8592 29.9476 13.2516 29.9735C13.6522 29.9999 14.1667 30.0004 14.9172 30.0004C15.6678 30.0004 16.1822 29.9999 16.5829 29.9735C16.9753 29.9476 17.1864 29.9 17.3375 29.8394L17.3377 29.8393C17.6028 29.733 17.8417 29.578 18.0414 29.3846C18.241 29.1913 18.3975 28.9636 18.5037 28.7153C18.5759 28.5452 18.6295 28.2951 18.6503 27.7475C18.6945 26.5629 19.3269 25.4462 20.4113 24.8395L20.4223 24.8333L20.4224 24.8334C20.9468 24.5487 21.5352 24.3988 22.1326 24.3958C22.7275 24.3929 23.315 24.5357 23.8406 24.813C24.3391 25.0684 24.598 25.1535 24.8016 25.18C25.0875 25.2165 25.378 25.1981 25.656 25.126L25.907 26.094L25.656 25.126C25.9339 25.0539 26.1928 24.93 26.4181 24.7626C26.5441 24.6687 26.6887 24.5194 26.9055 24.2067C27.128 23.8858 27.3844 23.4567 27.7601 22.8265C28.1363 22.1955 28.3918 21.7668 28.5673 21.4203C28.7388 21.0817 28.7969 20.8908 28.8161 20.747L28.8164 20.7441C28.8525 20.4795 28.8344 20.2105 28.763 19.952C28.6916 19.6937 28.5679 19.4497 28.3974 19.2343C28.2771 19.0837 28.0756 18.9121 27.5966 18.6198C27.0854 18.3172 26.6579 17.8921 26.3567 17.3812C26.054 16.8677 25.8898 16.2856 25.8819 15.69L25.8817 15.6767H25.8818C25.8818 14.4339 26.5794 13.3527 27.5907 12.7388C28.0775 12.4405 28.2786 12.2694 28.3963 12.1206L28.3969 12.1198C28.5676 11.9042 28.6915 11.66 28.763 11.4014C28.8344 11.143 28.8525 10.874 28.8165 10.6094L11.3296 28.7125ZM11.3296 28.7125C11.2579 28.546 11.2052 28.2999 11.1842 27.7485L11.3296 28.7125ZM20.4114 6.51413L20.4227 6.52022M20.4114 6.51413L20.4227 6.52022M20.4227 6.52022C20.9468 6.80458 21.5348 6.95428 22.1318 6.95724C22.7262 6.96018 23.3131 6.81756 23.8384 6.54085C24.3395 6.28487 24.5983 6.1998 24.8021 6.17337C25.0879 6.13694 25.3782 6.15541 25.656 6.22746C25.9335 6.29943 26.192 6.42313 26.4171 6.59013C26.5443 6.6854 26.6894 6.83573 26.9061 7.14782C27.1287 7.46853 27.3854 7.89719 27.7616 8.52683M20.4227 6.52022L27.7616 8.52683M2.07285 22.8266C1.69804 22.1966 1.4432 21.7673 1.26803 21.4206C1.0967 21.0815 1.03781 20.8892 1.01804 20.7441L2.07285 22.8266ZM27.7616 8.52683C28.1364 9.15683 28.3913 9.58614 28.5665 9.93286C28.7378 10.272 28.7967 10.4643 28.8164 10.6093L27.7616 8.52683Z" stroke="white" stroke-width="2"/>
<path d="M17.3377 1.51413L17.3375 1.51406C17.1864 1.45344 16.9753 1.40586 16.5829 1.37997C16.1822 1.35353 15.6678 1.35303 14.9172 1.35303C14.1667 1.35303 13.6522 1.35353 13.2516 1.37997C12.8592 1.40586 12.6481 1.45344 12.497 1.51406L12.4968 1.51413C12.2317 1.62042 11.9928 1.77547 11.7931 1.9689C11.5935 2.16217 11.437 2.38988 11.3308 2.63816C11.2589 2.8074 11.2054 3.05756 11.1844 3.59953C11.1691 4.19201 10.9992 4.76925 10.6929 5.2773C10.3854 5.78744 9.95122 6.20988 9.4341 6.50776L9.42318 6.51405L9.41211 6.52006C8.88767 6.8048 8.29928 6.95471 7.70189 6.95766C7.10694 6.9606 6.51945 6.81771 5.99381 6.54048C5.49519 6.28498 5.23649 6.19994 5.03138 6.17345C4.4537 6.10001 3.87317 6.25227 3.41792 6.58973C3.29077 6.68538 3.14548 6.83631 2.92921 7.14782C2.70663 7.46842 2.44966 7.89749 2.07434 8.52699C1.69815 9.15794 1.44271 9.58663 1.26718 9.9332C1.0957 10.2718 1.03759 10.4627 1.01842 10.6065L1.01804 10.6093C0.981987 10.8739 1.00006 11.1429 1.07152 11.4014C1.14288 11.6596 1.26646 11.9034 1.43679 12.1187C1.55746 12.2701 1.76002 12.4424 2.24345 12.7371L17.3377 1.51413ZM17.3377 1.51413C17.6028 1.62042 17.8417 1.77547 18.0414 1.9689C18.241 2.16227 18.3976 2.3901 18.5038 2.63852L18.5049 2.641C18.5763 2.8069 18.6289 3.0519 18.6501 3.59939C18.6654 4.19192 18.8353 4.76921 19.1416 5.2773C19.4491 5.78744 19.8833 6.20988 20.4004 6.50776L20.4114 6.51413M17.3377 1.51413L20.4114 6.51413M9.41834 24.8368L9.42452 24.8403C10.5071 25.4481 11.1403 26.5624 11.1842 27.7484L9.41834 24.8368ZM9.41834 24.8368L9.41211 24.8334M9.41834 24.8368L9.41211 24.8334M9.41211 24.8334C8.88767 24.5487 8.29928 24.3988 7.70189 24.3958C7.10692 24.3929 6.51942 24.5358 5.99377 24.813C5.49522 25.0685 5.23643 25.1536 5.0328 25.18C4.7469 25.2165 4.45646 25.1981 4.17849 25.126C3.90091 25.054 3.6424 24.9303 3.41729 24.7633C3.29007 24.668 3.14505 24.5177 2.92842 24.2056C2.70576 23.8849 2.44907 23.4563 2.07285 22.8266M9.41211 24.8334L2.07285 22.8266M11.3296 28.7125L11.3307 28.7149C11.4369 28.9634 11.5934 29.1912 11.7931 29.3846C11.9928 29.578 12.2317 29.733 12.4968 29.8393L12.497 29.8394C12.6481 29.9 12.8592 29.9476 13.2516 29.9735C13.6522 29.9999 14.1667 30.0004 14.9172 30.0004C15.6678 30.0004 16.1822 29.9999 16.5829 29.9735C16.9753 29.9476 17.1864 29.9 17.3375 29.8394L17.3377 29.8393C17.6028 29.733 17.8417 29.578 18.0414 29.3846C18.241 29.1913 18.3975 28.9636 18.5037 28.7153C18.5759 28.5452 18.6295 28.2951 18.6503 27.7475C18.6945 26.5629 19.3269 25.4462 20.4113 24.8395L20.4223 24.8333L20.4224 24.8334C20.9468 24.5487 21.5352 24.3988 22.1326 24.3958C22.7275 24.3929 23.315 24.5357 23.8406 24.813C24.3391 25.0684 24.598 25.1535 24.8016 25.18C25.0875 25.2165 25.378 25.1981 25.656 25.126L25.907 26.094L25.656 25.126C25.9339 25.0539 26.1928 24.93 26.4181 24.7626C26.5441 24.6687 26.6887 24.5194 26.9055 24.2067C27.128 23.8858 27.3844 23.4567 27.7601 22.8265C28.1363 22.1955 28.3918 21.7668 28.5673 21.4203C28.7388 21.0817 28.7969 20.8908 28.8161 20.747L28.8164 20.7441C28.8525 20.4795 28.8344 20.2105 28.763 19.952C28.6916 19.6937 28.5679 19.4497 28.3974 19.2343C28.2771 19.0837 28.0756 18.9121 27.5966 18.6198C27.0854 18.3172 26.6579 17.8921 26.3567 17.3812C26.054 16.8677 25.8898 16.2856 25.8819 15.69L25.8817 15.6767H25.8818C25.8818 14.4339 26.5794 13.3527 27.5907 12.7388C28.0775 12.4405 28.2786 12.2694 28.3963 12.1206L28.3969 12.1198C28.5676 11.9042 28.6915 11.66 28.763 11.4014C28.8344 11.143 28.8525 10.874 28.8165 10.6094L11.3296 28.7125ZM11.3296 28.7125C11.2579 28.546 11.2052 28.2999 11.1842 27.7485L11.3296 28.7125ZM20.4114 6.51413L20.4227 6.52022M20.4114 6.51413L20.4227 6.52022M20.4227 6.52022C20.9468 6.80458 21.5348 6.95428 22.1318 6.95724C22.7262 6.96018 23.3131 6.81756 23.8384 6.54085C24.3395 6.28487 24.5983 6.1998 24.8021 6.17337C25.0879 6.13694 25.3782 6.15541 25.656 6.22746C25.9335 6.29943 26.192 6.42313 26.4171 6.59013C26.5443 6.6854 26.6894 6.83573 26.9061 7.14782C27.1287 7.46853 27.3854 7.89719 27.7616 8.52683M20.4227 6.52022L27.7616 8.52683M2.07285 22.8266C1.69804 22.1966 1.4432 21.7673 1.26803 21.4206C1.0967 21.0815 1.03781 20.8892 1.01804 20.7441L2.07285 22.8266ZM27.7616 8.52683C28.1364 9.15683 28.3913 9.58614 28.5665 9.93286C28.7378 10.272 28.7967 10.4643 28.8164 10.6093L27.7616 8.52683Z" stroke="white" stroke-width="2"/>
</svg>
