<svg width="24" height="24" viewBox="0 0 24 24" fill="none" xmlns="http://www.w3.org/2000/svg">
<path d="M15.8988 13.0188L11.0988 17.8188C10.8283 18.0893 10.4614 18.2413 10.0788 18.2413C9.69623 18.2413 9.32932 18.0893 9.0588 17.8188C8.78828 17.5483 8.6363 17.1814 8.6363 16.7988C8.6363 16.4162 8.78828 16.0493 9.0588 15.7788L11.4 13.44H1.44C1.05809 13.44 0.691819 13.2883 0.421766 13.0182C0.151714 12.7482 0 12.3819 0 12C0 11.6181 0.151714 11.2518 0.421766 10.9818C0.691819 10.7117 1.05809 10.56 1.44 10.56H11.4L9.0612 8.2188C8.92725 8.08485 8.821 7.92583 8.74851 7.75082C8.67601 7.57581 8.6387 7.38823 8.6387 7.1988C8.6387 6.81623 8.79068 6.44932 9.0612 6.1788C9.33172 5.90828 9.69863 5.7563 10.0812 5.7563C10.4638 5.7563 10.8307 5.90828 11.1012 6.1788L15.9012 10.9788C16.0353 11.1127 16.1416 11.2718 16.2141 11.4469C16.2866 11.6221 16.3238 11.8098 16.3235 11.9993C16.3233 12.1888 16.2857 12.3764 16.2128 12.5514C16.1399 12.7263 16.0332 12.8852 15.8988 13.0188ZM21.6 0H14.88C14.4981 0 14.1318 0.151714 13.8618 0.421766C13.5917 0.691819 13.44 1.05809 13.44 1.44C13.44 1.82191 13.5917 2.18818 13.8618 2.45823C14.1318 2.72829 14.4981 2.88 14.88 2.88H21.12V21.12H14.88C14.4981 21.12 14.1318 21.2717 13.8618 21.5418C13.5917 21.8118 13.44 22.1781 13.44 22.56C13.44 22.9419 13.5917 23.3082 13.8618 23.5782C14.1318 23.8483 14.4981 24 14.88 24H21.6C22.2365 24 22.847 23.7471 23.2971 23.2971C23.7471 22.847 24 22.2365 24 21.6V2.4C24 1.76348 23.7471 1.15303 23.2971 0.702944C22.847 0.252856 22.2365 0 21.6 0Z" fill="white"/>
</svg>

