<svg width="14" height="17" viewBox="0 0 14 17" fill="none" xmlns="http://www.w3.org/2000/svg">
<path d="M9.23107 3.17788C9.27528 3.2884 9.31411 3.40105 9.34751 3.5159C9.31554 3.40961 9.27849 3.30481 9.23631 3.20156C9.06334 2.77808 8.82333 2.39913 8.51663 2.06796C8.82307 2.38434 9.06108 2.75291 9.23107 3.17788ZM6.0061 1C6.47157 1.00071 6.89715 1.08215 7.28772 1.24032C6.88413 1.08461 6.45564 1.00552 6.0061 1.00004L6.0061 1ZM10.5026 10C10.9215 10.0003 11.3059 10.079 11.661 10.2324C12.0271 10.3906 12.3476 10.6061 12.6259 10.8799C12.9011 11.1506 13.1138 11.4649 13.2655 11.8263C13.3176 11.9505 13.3612 12.0786 13.3962 12.2109C13.3611 12.0825 13.317 11.9566 13.2638 11.8333C13.1085 11.473 12.8921 11.1553 12.6151 10.8846C12.3424 10.6181 12.0273 10.4056 11.6733 10.2469C11.3052 10.0819 10.9131 10.0003 10.5026 10ZM13.5 13.0026C13.4997 13.4215 13.421 13.8059 13.2676 14.161C13.1094 14.5271 12.8939 14.8476 12.6201 15.1259C12.3494 15.4011 12.0351 15.6138 11.6737 15.7655C11.5495 15.8176 11.4214 15.8612 11.2891 15.8962C11.4175 15.8611 11.5434 15.817 11.6667 15.7638C12.0246 15.6096 12.341 15.3974 12.6114 15.127C12.8817 14.8567 13.0956 14.5387 13.2544 14.1782C13.4182 13.8066 13.4997 13.4132 13.5 13.0026ZM10.4974 16C10.1575 15.9997 9.84033 15.9479 9.54306 15.8464C9.84873 15.9488 10.1676 15.9997 10.4974 16ZM7.73615 14.1667C7.88992 14.5234 8.10084 14.8407 8.36867 15.1148C8.09608 14.8452 7.88518 14.5327 7.73447 14.1737C7.68236 14.0495 7.63876 13.9214 7.60383 13.7891C7.63893 13.9175 7.683 14.0434 7.73615 14.1667ZM7.5 12.9973C7.50033 12.5785 7.57896 12.1941 7.73242 11.839C7.89059 11.4729 8.10608 11.1524 8.37985 10.8741C8.65063 10.5989 8.9649 10.3862 9.32633 10.2345C9.45046 10.1824 9.57857 10.1388 9.71087 10.1038C9.58254 10.1389 9.45663 10.183 9.33334 10.2362C8.97405 10.391 8.6554 10.6062 8.38082 10.8808C8.10624 11.1554 7.89101 11.4741 7.73615 11.8333C7.57814 12.1999 7.50034 12.5896 7.5 12.9973ZM2.5 4.57812C2.5 4.07734 2.5901 3.61353 2.76723 3.18207C2.94705 2.74405 3.19374 2.36612 3.507 2.04378C3.82038 1.72132 4.1886 1.46614 4.61576 1.27782C5.0315 1.09454 5.49075 1 6 1C5.50821 1 5.04283 1.09335 4.61004 1.28501C4.18752 1.47213 3.81594 1.73053 3.49921 2.05943C3.18344 2.38735 2.9381 2.76672 2.76369 3.19375C2.58647 3.62762 2.5 4.09074 2.5 4.57812Z" fill="#225522" stroke="#225522"/>
</svg>
