<svg width="30" height="30" viewBox="0 0 30 30" fill="none" xmlns="http://www.w3.org/2000/svg">
<path fill-rule="evenodd" clip-rule="evenodd" d="M5.5287 22.8618C5.55482 22.5785 5.5204 22.2927 5.4279 22.0248C5.3354 21.7568 5.18709 21.5134 4.99355 21.3118C3.01701 19.2527 1.86466 16.617 1.86466 13.7761C1.86466 7.59896 7.46608 2.16493 14.9172 2.16493C22.3684 2.16493 27.9698 7.59896 27.9698 13.7761C27.9698 19.9532 22.3684 25.3873 14.9172 25.3873C13.6028 25.3906 12.2936 25.2136 11.0238 24.8609C10.58 24.7375 10.1079 24.7885 9.69807 25.0041C8.97645 25.3834 7.3859 26.1072 4.78657 26.7322C5.14889 25.4687 5.39733 24.173 5.5287 22.8618ZM4.03698 28.8764L4.07427 28.8687C7.48659 28.1662 9.57127 27.2393 10.5409 26.7303C11.9682 27.1268 13.4397 27.3259 14.9172 27.3225C23.1553 27.3225 29.8345 21.2576 29.8345 13.7761C29.8345 6.29464 23.1553 0.229736 14.9172 0.229736C6.67919 0.229736 0 6.29464 0 13.7761C0 17.182 1.38544 20.2977 3.67337 22.678C3.5139 24.2071 3.18607 25.7122 2.69629 27.1638L2.6907 27.1851C2.55135 27.6008 2.39962 28.0119 2.23572 28.4178C2.08841 28.7777 2.37371 29.1803 2.74477 29.1183C3.17672 29.0449 3.60751 28.9642 4.03698 28.8764ZM14.9172 9.89217C18.02 6.58105 25.7789 12.375 14.9172 19.8236C4.05562 12.3731 11.8145 6.58105 14.9172 9.89217Z" fill="white"/>
</svg>

