<svg width="40" height="34" viewBox="0 0 40 34" fill="none" xmlns="http://www.w3.org/2000/svg">
<path d="M30.7422 5.59254L31.4004 6.24366C32.3075 7.142 32.1702 8.7345 31.0914 9.80058L17.5175 23.2281L13.1196 24.8195C12.5674 25.0204 12.0297 24.7599 11.9203 24.2402C11.8834 24.0516 11.9008 23.8566 11.9705 23.6773L13.6105 19.2894L27.1465 5.89824C28.2253 4.83215 29.8352 4.6942 30.7422 5.59254ZM16.9251 6.9279C17.0716 6.9279 17.2167 6.95644 17.352 7.01191C17.4874 7.06737 17.6104 7.14866 17.714 7.25114C17.8175 7.35362 17.8997 7.47528 17.9558 7.60917C18.0119 7.74307 18.0407 7.88658 18.0407 8.0315C18.0407 8.17643 18.0119 8.31994 17.9558 8.45384C17.8997 8.58773 17.8175 8.70939 17.714 8.81187C17.6104 8.91435 17.4874 8.99564 17.352 9.0511C17.2167 9.10656 17.0716 9.13511 16.9251 9.13511H12.4625C11.8708 9.13511 11.3032 9.36765 10.8848 9.78159C10.4663 10.1955 10.2313 10.7569 10.2313 11.3423V24.5856C10.2313 25.171 10.4663 25.7324 10.8848 26.1463C11.3032 26.5602 11.8708 26.7928 12.4625 26.7928H25.8502C26.4419 26.7928 27.0095 26.5602 27.4279 26.1463C27.8464 25.7324 28.0814 25.171 28.0814 24.5856V20.1712C28.0814 19.8785 28.199 19.5978 28.4082 19.3908C28.6174 19.1838 28.9012 19.0676 29.1971 19.0676C29.493 19.0676 29.7767 19.1838 29.9859 19.3908C30.1952 19.5978 30.3127 19.8785 30.3127 20.1712V24.5856C30.3127 25.7564 29.8425 26.8792 29.0057 27.707C28.1688 28.5349 27.0337 29 25.8502 29H12.4625C11.279 29 10.1439 28.5349 9.30705 27.707C8.47016 26.8792 8 25.7564 8 24.5856V11.3423C8 10.1715 8.47016 9.04872 9.30705 8.22085C10.1439 7.39299 11.279 6.9279 12.4625 6.9279H16.9251Z" fill="white"/>
<rect width="40" height="34" fill="#D9D9D9" fill-opacity="0.09"/>
</svg>
